<?xml version="1.0" encoding="UTF-8" standalone="no"?>
<!-- Created with Inkscape (http://www.inkscape.org/) -->

<svg
   width="210mm"
   height="297mm"
   viewBox="0 0 210 297"
   version="1.1"
   id="svg5"
   inkscape:version="1.2.2 (b0a8486541, 2022-12-01)"
   sodipodi:docname="districtcouncilelection.svg"
   xmlns:inkscape="http://www.inkscape.org/namespaces/inkscape"
   xmlns:sodipodi="http://sodipodi.sourceforge.net/DTD/sodipodi-0.dtd"
   xmlns="http://www.w3.org/2000/svg"
   xmlns:svg="http://www.w3.org/2000/svg">
  <sodipodi:namedview
     id="namedview7"
     pagecolor="#ffffff"
     bordercolor="#000000"
     borderopacity="0.25"
     inkscape:showpageshadow="2"
     inkscape:pageopacity="0.0"
     inkscape:pagecheckerboard="0"
     inkscape:deskcolor="#d1d1d1"
     inkscape:document-units="mm"
     showgrid="false"
     inkscape:zoom="1.4289545"
     inkscape:cx="312.81612"
     inkscape:cy="661.67259"
     inkscape:window-width="1600"
     inkscape:window-height="828"
     inkscape:window-x="0"
     inkscape:window-y="0"
     inkscape:window-maximized="1"
     inkscape:current-layer="layer1" />
  <defs
     id="defs2" />
  <g
     inkscape:label="Ebene 1"
     inkscape:groupmode="layer"
     id="layer1">
    <path
       style="fill:#000000;stroke-width:0.264583"
       id="path128"
       d="m 30.554242,41.678029 c 0.645104,2.028282 0.851127,4.148857 1.110702,6.249921 0.326946,2.20222 0.384752,4.428654 0.559229,6.644267 0.374912,2.787832 0.142226,5.582682 -0.03981,8.373107 -0.199279,3.080163 -0.293992,6.165405 -0.355288,9.250942 -0.02447,4.135453 0.01585,8.271047 0.03145,12.4065 0.0066,5.114597 -0.0011,10.229334 -0.01524,15.343947 0.124338,4.833917 0.278706,9.666637 0.357634,14.501677 0.06177,4.64076 0.06159,9.28193 0.08336,13.92293 0.09553,5.74965 -0.03078,11.49626 -0.176089,17.24347 -0.09195,6.80995 -0.379867,13.61565 -0.747858,20.41567 -0.397504,6.17097 -0.762444,12.34387 -1.148995,18.51555 -0.238522,4.13867 -0.851964,8.24088 -1.374579,12.34955 -0.162102,1.73647 -0.424278,3.47988 -0.368303,5.22909 0.035,1.09357 0.155311,1.96034 0.276553,3.06282 0.499822,4.09253 0.941531,8.19234 1.441508,12.28469 0.354812,1.72032 0.425069,3.79243 1.577377,5.23577 0.163484,0.20477 0.368954,0.37216 0.553429,0.55824 1.674747,1.11383 2.060612,1.404 4.788186,2.59465 0.940337,0.41047 3.948972,-0.53535 4.862102,-0.80713 4.600261,-1.82127 9.370978,-3.04447 14.220084,-3.97566 5.842564,-1.10874 11.793522,-1.31403 17.716648,-1.60879 5.609887,-0.14234 11.201612,-0.64401 16.812451,-0.71552 6.278372,-0.0977 12.489097,0.82026 18.717437,1.44953 5.75095,0.59294 11.52661,0.88592 17.28187,1.42337 4.12449,0.45334 8.25459,0.81377 12.38931,1.15598 4.08245,0.40083 8.17599,0.42754 12.26966,0.2479 4.44095,-0.0453 8.78279,-0.9142 13.10168,-1.85455 2.34245,-0.43941 4.72023,-0.74737 7.10798,-0.74691 2.30236,5.3e-4 4.61219,0.26481 6.90152,0.4773 1.77808,0.20865 3.55205,0.44987 5.32766,0.678 0.62628,0.0805 1.64312,0.25778 2.31125,0.16957 0.28531,-0.0377 0.55078,-0.16711 0.82616,-0.25066 0.19772,-0.19465 0.45923,-0.34094 0.59314,-0.58393 0.61172,-1.10993 0.45146,-3.47586 0.38769,-4.67096 -0.072,-1.34851 -0.41711,-4.65745 -0.52944,-5.7967 -0.6611,-6.47788 -1.16696,-12.97391 -1.33618,-19.48492 -0.12797,-4.92371 -0.0645,-7.23917 -0.0213,-12.17513 0.28192,-10.78371 0.87206,-21.55712 1.38626,-32.33176 0.52285,-8.35792 0.96587,-16.72087 1.37952,-25.08483 0.30929,-8.01345 0.51637,-16.04689 0.089,-24.058848 -0.54142,-6.498754 -1.55389,-12.943583 -2.18055,-19.434479 -0.52936,-4.514778 -0.31102,-9.053417 -0.0232,-13.574082 0.20289,-3.59069 0.38361,-7.188322 0.34057,-10.786372 -0.009,-0.774158 0.0685,-1.562542 -0.0868,-2.321012 -0.14031,-0.685136 -0.52452,-1.296636 -0.78678,-1.944955 -0.55997,-0.509408 -1.02964,-1.140653 -1.6799,-1.528223 -1.85023,-1.102765 -3.77724,-2.090875 -5.76879,-2.911324 -1.3403,-0.552156 -5.06902,-1.014846 -6.39513,-1.151689 -2.12343,-0.219117 -5.50692,-0.379285 -7.61802,-0.495681 -6.97072,-0.240982 -13.92953,-0.710274 -20.89121,-1.122198 -6.49933,-0.334285 -13.00486,-0.532506 -19.50906,-0.746977 -6.66237,-0.192665 -13.32767,-0.227124 -19.99234,-0.243256 -6.84669,-0.03975 -13.693812,0.03539 -20.53997,-0.06476 -6.295882,-0.229055 -12.590975,-0.481833 -18.881428,-0.830461 -3.996076,-0.213342 -7.995817,-0.361088 -11.996761,-0.441714 -2.633089,-0.10405 -5.259586,0.007 -7.882477,0.236154 -2.64009,0.247867 -5.285791,0.428712 -7.935328,0.533418 -1.369065,0.01085 -2.726253,0.210437 -4.056668,0.519827 -1.170999,0.202107 -1.798696,0.309002 -2.59316,1.244362 -0.602742,0.852424 -0.919761,1.859373 -1.201045,2.853933 -0.01961,0.07619 -0.03924,0.152379 -0.05885,0.228569 0,0 3.503925,1.880743 3.503925,1.880743 v 0 c 0.01299,-0.07405 0.02601,-0.148106 0.03899,-0.22216 0.217123,-0.945738 0.53558,-1.901984 1.101125,-2.698854 0.695362,-0.772678 1.46972,-0.84411 2.451089,-1.040823 1.307301,-0.294656 2.642322,-0.452686 3.982596,-0.485735 2.636488,-0.134673 5.267356,-0.354423 7.897587,-0.577821 2.620021,-0.19976 5.241557,-0.275873 7.869066,-0.198953 3.964437,0.05527 7.928149,0.16375 11.887509,0.378579 6.272361,0.315833 12.548658,0.546264 18.82485,0.77157 6.845803,0.09987 13.69266,0.02416 20.53902,0.05908 6.66985,0.03131 13.34062,0.06751 20.00799,0.267547 6.4999,0.201411 13.00012,0.428114 19.49516,0.749371 6.94541,0.418553 13.89044,0.848778 20.84515,1.087202 3.68379,0.21848 7.41802,0.334309 11.04988,1.053717 1.00589,0.19925 1.95563,0.781333 2.98086,0.760386 0.34641,-0.0071 -0.96195,-0.966663 -0.65397,-0.807924 0.65309,0.336619 1.15458,0.909003 1.73187,1.363504 0.29017,0.610542 0.71178,1.174541 0.87051,1.831631 0.18202,0.753525 0.11374,1.546839 0.13282,2.321803 0.0882,3.581665 -0.14428,7.165306 -0.38865,10.735911 -0.32354,4.553868 -0.47788,9.132906 0.0904,13.677005 0.63556,6.490798 1.63935,12.93626 2.2097,19.432926 0.49736,8.011003 0.35513,16.050993 0.0116,24.066453 -0.42278,8.36731 -0.91464,16.73058 -1.36049,25.09662 -0.45701,10.80339 -0.92211,21.60793 -1.24935,32.41576 -0.0632,6.01256 -0.0924,12.01981 0.14787,18.02987 0.1438,3.59641 0.34116,5.91076 0.61654,9.44575 0.10615,1.36264 0.21646,2.72496 0.32469,4.08744 0.0522,0.67823 0.3735,4.70795 0.41521,5.70806 0.041,0.9827 0.18344,3.40276 -0.33318,4.33395 -0.10398,0.18743 -0.32082,0.28434 -0.48123,0.42651 -1.18894,0.27428 -1.76573,0.14825 -2.9895,0.002 -1.76152,-0.21095 -3.52055,-0.44285 -5.285,-0.62896 -2.29622,-0.19726 -4.60953,-0.44729 -6.91756,-0.42617 -2.40244,0.022 -4.78875,0.35894 -7.14607,0.79673 -4.31231,0.91694 -8.64551,1.74922 -13.07366,1.79511 -4.0933,0.15078 -8.18572,0.10159 -12.26589,-0.3023 -4.11875,-0.3313 -8.231,-0.70861 -12.34208,-1.12521 -5.73286,-0.50234 -11.4831,-0.78729 -17.20927,-1.37504 -6.2497,-0.65039 -12.486056,-1.54626 -18.787637,-1.44746 -5.608092,0.0946 -11.198865,0.56654 -16.805291,0.7364 -5.94089,0.28914 -11.905853,0.54137 -17.766313,1.63851 -2.673482,0.52521 -5.326247,1.07483 -7.943646,1.84106 -1.64384,0.48123 -2.912425,0.93927 -4.531291,1.48089 -0.61868,0.20699 -1.238999,0.40905 -1.858499,0.61357 -1.273376,0.33976 -2.573806,0.73834 -3.910714,0.69948 -0.296574,-0.009 -1.104053,-0.32199 -0.881102,-0.12622 0.811636,0.71266 4.053536,2.42075 1.939875,1.29303 -0.195586,-0.15842 -0.411269,-0.29484 -0.586754,-0.47528 -1.277916,-1.31397 -1.362993,-3.44267 -1.750229,-5.11271 -0.570513,-4.07808 -0.9741,-8.1792 -1.436304,-12.27068 -0.274508,-2.81038 -0.35325,-5.39992 0.06188,-8.21071 0.475758,-4.13721 1.064353,-8.26486 1.272598,-12.42836 0.35805,-6.18329 0.731541,-12.36549 1.089983,-18.54861 0.366474,-6.79395 0.659945,-13.59224 0.811689,-20.39464 0.14697,-5.74456 0.248764,-11.48829 0.214135,-17.23511 0.0123,-4.64192 0.0032,-9.28439 -0.07598,-13.92575 -0.08182,-4.83081 -0.226161,-9.65968 -0.347523,-14.48958 -0.01585,-5.120988 -0.02648,-10.242096 -0.02233,-15.363075 0.01463,-4.113077 0.0344,-8.226197 0.08736,-12.338989 0.03728,-3.083396 0.112612,-6.167355 0.324723,-9.244401 0.195133,-2.797903 0.462494,-5.600931 0.113355,-8.399976 -0.184898,-2.222153 -0.235333,-4.457684 -0.567893,-6.666585 -0.256593,-2.097897 -0.437899,-4.214894 -1.016127,-6.257327 0,0 -3.568946,-1.709674 -3.568946,-1.709674 z" />
    <path
       style="fill:#000000;stroke-width:0.264583"
       id="path130"
       d="m 49.816162,63.607277 c 0.04821,1.595065 -0.03161,3.192426 0.05792,4.785765 0.147066,1.37564 0.26634,2.752214 0.32985,4.134278 -0.03247,1.348098 -0.196061,2.688392 -0.295804,4.032454 -0.0079,0.874181 -0.26249,1.710031 -0.501015,2.541604 -0.401502,0.986827 -0.620249,2.020953 -0.76119,3.072722 -0.138726,1.057164 -0.397902,2.086899 -0.649534,3.12052 -0.249208,1.071951 -0.277521,2.178621 -0.312592,3.273957 0.003,0.974706 -0.218741,1.929174 -0.321328,2.895197 0.003,1.526419 0.924491,2.550922 2.08198,3.415909 2.639628,1.968045 4.796001,3.187369 7.927474,3.259428 1.776323,-0.07423 3.558752,-0.307734 5.313135,-0.603361 1.648339,-0.287091 3.315954,-0.417467 4.974371,-0.630939 1.431742,-0.30213 2.86934,-0.554984 4.327977,-0.675356 1.146215,-0.05744 2.272136,-0.29635 3.413051,-0.415394 1.005107,-0.205845 2.000649,-0.428588 2.977745,-0.744161 0.751716,-0.242835 1.524799,-0.414095 2.281587,-0.637826 0.196979,-0.05823 0.414396,-0.08169 0.583395,-0.198448 0.213085,-0.147212 0.352259,-0.379762 0.528389,-0.569643 0.149254,-0.35465 0.337085,-0.695433 0.447757,-1.06395 0.278892,-0.928638 0.487567,-2.440281 0.61249,-3.374642 0.278746,-2.084916 0.501112,-4.179403 0.730419,-6.270164 0.371668,-3.284239 0.780616,-6.559423 1.617149,-9.761061 0.609312,-1.908789 1.187498,-3.828421 1.679406,-5.771118 0.147267,-0.946156 0.449715,-1.889501 0.501787,-2.849563 -1.264168,-0.603086 -2.488231,-1.298667 -3.792505,-1.809258 -0.04048,-0.01585 -1.095987,0.279646 -1.194441,0.301355 -1.156763,0.255059 -2.350804,0.353542 -3.52385,0.501709 -3.138414,0.314452 -6.277086,0.636196 -9.424194,0.852836 -2.101998,0.207936 -4.193736,0.141497 -6.293445,-0.01238 -1.468721,-0.01275 -2.903688,-0.315008 -4.354467,-0.495768 -1.249712,-0.300834 -2.525925,-0.431729 -3.788556,-0.665629 -1.238512,-0.109825 -2.367272,-0.619384 -3.496477,-1.095967 -0.894439,-0.275188 -1.188066,-0.829972 -2.144453,-0.492332 -0.03153,0.181626 -0.06307,0.363252 -0.09461,0.544881 0,0 3.573243,1.732494 3.573243,1.732494 v 0 c -0.06914,-0.006 -0.138284,-0.01196 -0.207425,-0.01794 0.707308,-0.07611 1.302461,0.52102 1.970344,0.677103 1.139065,0.476946 2.302018,0.886339 3.538781,1.019921 1.267695,0.225193 2.544434,0.390398 3.805287,0.65399 1.444149,0.198702 2.883572,0.425174 4.344747,0.459642 2.096767,0.145187 4.18452,0.140591 6.280081,-0.06583 3.149788,-0.235495 6.292154,-0.563515 9.435743,-0.867677 1.208108,-0.139896 2.423647,-0.246753 3.614999,-0.499978 0.230579,-0.04901 0.45815,-0.111278 0.686597,-0.169426 0.187454,-0.04771 0.707615,-0.02188 0.56107,-0.148145 -0.945388,-0.814518 -2.083472,-1.374021 -3.125208,-2.061033 0.03266,2.64e-4 0.08769,-0.02982 0.09798,0.0011 0.147233,0.443826 -0.422685,2.106422 -0.421217,2.642248 -0.461306,1.952723 -1.034645,3.877162 -1.62874,5.79305 -0.822921,3.232679 -1.220902,6.534607 -1.569927,9.848305 -0.227777,2.082173 -0.461584,4.165409 -0.75439,6.239724 -0.142272,1.007885 -0.315804,2.266148 -0.628502,3.25302 -0.101285,0.319659 -0.272531,0.612773 -0.408797,0.919157 -0.144614,0.135994 -0.262705,0.307383 -0.433843,0.40798 -0.170534,0.100243 -0.375578,0.12468 -0.565639,0.179528 -0.764501,0.220625 -1.540994,0.401989 -2.298139,0.648808 -0.967042,0.284613 -1.947958,0.513358 -2.942625,0.678879 -1.130884,0.138223 -2.251472,0.364731 -3.391453,0.419486 -1.45606,0.141108 -2.886231,0.427292 -4.322945,0.6971 -1.66158,0.211466 -3.333601,0.339265 -4.982813,0.641107 -1.73936,0.271539 -3.499331,0.5374 -5.261509,0.540986 -0.866124,-0.05946 -1.699131,-0.150252 -2.529263,-0.425831 -0.24007,-0.0797 -0.914215,-0.42563 -0.702271,-0.287555 0.677064,0.441087 4.140118,2.484768 2.105557,1.201412 -1.130501,-0.721254 -2.118074,-1.602023 -2.230265,-3.020949 0.100835,-0.976508 0.326104,-1.941073 0.330573,-2.924426 0.02529,-1.069962 0.04848,-2.149578 0.279442,-3.199069 0.24661,-1.049346 0.51498,-2.09033 0.667295,-3.159728 0.123362,-1.034455 0.32516,-2.052029 0.737957,-3.014925 0.252222,-0.856747 0.53045,-1.717707 0.529905,-2.622063 0.08566,-1.360315 0.232722,-2.715662 0.305607,-4.076689 -0.05535,-1.386367 -0.161832,-2.768489 -0.330232,-4.145995 -0.13045,-1.57829 -0.04068,-3.166459 -0.0449,-4.748683 0,0 -3.522522,-1.794814 -3.522522,-1.794814 z" />
    <path
       style="fill:#000000;stroke-width:0.264583"
       id="path132"
       d="m 50.245975,113.46545 c 0.0461,2.11763 -0.0016,4.23597 0.08182,6.35247 0.124156,2.10343 0.241449,4.20713 0.309804,6.31319 0.03383,1.17634 0.04179,2.35324 0.04874,3.52999 -0.01402,1.55013 0.06669,3.10467 -0.04413,4.65197 -0.171112,1.50307 -0.271447,3.01068 -0.32983,4.52195 -0.04364,1.24289 -0.06396,2.48649 -0.06524,3.7301 0.0057,1.7307 0.02267,3.46127 0.02833,5.19197 0.01159,1.90505 -0.0123,3.81004 -0.01797,5.71506 -0.0996,1.28122 -0.255638,2.55684 -0.351843,3.8386 -0.165227,0.92149 -0.263367,1.85572 -0.437124,2.7756 1.268823,0.54118 2.472349,1.27294 3.806465,1.62352 0.249272,0.0655 0.402752,-0.3237 0.62156,-0.45991 0.334528,-0.20823 0.679719,-0.40071 1.03496,-0.57123 1.53771,-0.7381 3.153298,-1.18279 4.792511,-1.62669 2.591147,-0.67589 5.274972,-0.72897 7.935087,-0.6981 1.863209,-0.0151 3.714562,0.1415 5.569281,0.294 1.912562,0.19574 3.838154,0.14146 5.752737,0.28873 1.604061,0.13511 3.207512,0.27586 4.815523,0.35439 0.950166,0.042 1.90138,0.0449 2.852279,0.0461 0.957189,-0.0181 1.91239,0.10658 2.825332,-0.22451 1.341737,-1.23919 1.321642,-3.25149 1.522307,-4.94194 0.529233,-5.01241 0.162417,-10.05311 -0.126346,-15.06754 -0.234485,-3.89355 -0.428903,-7.7892 -0.55045,-11.68792 -0.02882,-2.78089 -0.134755,-5.56056 -0.130276,-8.34156 0.01632,-1.93361 0.05208,-3.86694 0.08466,-5.80032 -0.08542,-2.23376 -0.939057,-1.79834 -3.84084,-3.18236 -0.046,-0.0219 -0.622437,0.26595 -0.720087,0.31241 -2.00986,0.67502 -4.134218,0.81561 -6.234311,0.94901 -2.248577,0.0871 -4.503695,0.18644 -6.75223,0.0645 -2.006126,-0.16758 -4.015666,-0.27481 -6.027597,-0.33717 -1.608289,-0.0441 -3.21717,-0.0518 -4.825945,-0.057 -0.968499,-0.11757 -1.924383,-0.30199 -2.8986,-0.36985 -1.456873,-0.0813 -2.898502,0.36325 -4.270118,0.8099 -1.156039,0.3306 -2.269882,0.76949 -3.381793,1.22112 -0.411758,0.19963 -0.772679,0.48116 -1.154274,0.73036 0,0 3.330715,2.13536 3.330715,2.13536 v 0 c 0.359434,-0.23847 0.709501,-0.49629 1.106538,-0.67085 1.094793,-0.45555 2.205971,-0.86246 3.340319,-1.21002 1.359718,-0.42134 2.768627,-0.82054 4.206423,-0.6655 0.968639,0.0979 1.926108,0.29102 2.900188,0.33027 1.599094,2.2e-4 3.198415,0.006 4.796993,0.0506 2.008148,0.066 4.012544,0.1889 6.016332,0.33583 2.25322,0.0864 4.510344,-2.6e-4 6.761535,-0.1116 2.147713,-0.14768 4.316455,-0.3115 6.37028,-1.00694 0.143756,-0.0478 0.283594,-0.10967 0.431266,-0.14356 0.06757,-0.0155 0.266501,0.034 0.207952,-0.003 -1.065017,-0.67518 -2.178143,-1.2716 -3.254637,-1.92832 -0.05546,-0.0338 0.142986,0.008 0.186502,0.0566 0.207555,0.23007 0.183539,0.64697 0.209719,0.90477 -0.0073,1.94202 -0.03277,3.88383 -0.04443,5.82581 0.01029,2.78681 0.141195,5.57086 0.136718,8.35831 0.129871,3.92986 0.471342,7.84899 0.699392,11.77372 0.286208,4.969 0.616799,9.96695 0.0029,14.92689 -0.192386,1.46749 -0.131865,3.47819 -1.369409,4.51078 -0.900565,0.22541 -1.834877,0.10126 -2.755148,0.12777 -0.94278,-0.002 -1.885815,-0.008 -2.827806,-0.051 -1.596361,-0.0775 -3.189005,-0.20833 -4.781751,-0.33912 -1.914512,-0.11486 -3.83603,-0.10285 -5.746787,-0.29102 -1.860241,-0.15317 -3.719973,-0.29702 -5.588585,-0.27105 -2.664092,0.002 -5.345075,0.1323 -7.931406,0.83025 -2.054035,0.57423 -4.145598,1.14314 -5.985391,2.26156 -0.235636,0.14325 -0.850405,0.27404 -0.67119,0.48362 0.831636,0.97256 2.042184,1.54255 3.063274,2.31382 0.134766,-0.94247 0.250923,-1.88706 0.426104,-2.82344 0.08321,-1.29333 0.23345,-2.57924 0.351935,-3.86936 -0.0059,-1.91148 -0.03021,-3.82291 -0.01979,-5.73443 0.0044,-1.72139 0.01863,-3.44267 0.02447,-5.16405 0.0035,-1.24298 -0.0013,-2.4862 0.03723,-3.72876 0.05458,-1.50544 0.150019,-3.00797 0.3321,-4.50405 0.122936,-1.55458 0.01588,-3.11836 0.06253,-4.67654 0.003,-1.18317 0.0033,-2.36659 -0.05369,-3.54876 -0.09437,-2.11298 -0.236101,-4.22321 -0.350282,-6.33513 -0.09391,-2.09985 -0.04574,-4.20185 -0.02101,-6.30318 0,0 -3.52252,-1.79481 -3.52252,-1.79481 z" />
    <path
       style="fill:#000000;stroke-width:0.264583"
       id="path140"
       d="m 51.794007,169.53821 c 0.436372,1.34552 0.676542,2.7439 0.869871,4.14186 0.172318,1.33057 0.213077,2.67225 0.233751,4.01215 0.04089,1.63939 0.113311,3.27886 0.246565,4.91347 0.173432,1.83049 0.257548,3.66685 0.305713,5.50429 0.0092,1.81335 -0.06821,3.62565 -0.11204,5.43822 -0.02614,1.392 0.123394,2.78058 0.268435,4.16314 0.127461,1.15839 0.173599,2.32336 0.206071,3.4876 0.03761,1.18624 0.01902,2.37306 0.0069,3.55953 -0.01363,0.88146 -0.0058,1.76311 -0.0051,2.64465 0.02283,0.33002 0.0073,0.49615 0.12963,0.80466 0.04141,0.10445 0.07175,0.23219 0.165984,0.29338 2.174589,1.41211 2.554618,2.19751 4.391001,2.2242 1.006687,0.0206 1.89189,-0.19005 2.831074,-0.52995 1.075105,-0.40068 2.158439,-0.78542 3.253909,-1.12718 0.921901,-0.2382 1.848937,-0.46072 2.780887,-0.65627 0.903237,-0.1822 1.82417,-0.2254 2.742494,-0.25381 1.286835,-0.0461 2.573239,0.0411 3.8589,0.0881 1.356566,0.0953 2.713297,0.18268 4.072183,0.2363 1.080485,0.0688 2.157505,0.005 3.235884,-0.0573 1.200824,-0.13768 2.40671,-0.20844 3.614197,-0.24946 1.058887,-0.0423 2.117122,0.056 3.173489,0.11919 0.551098,0.0341 1.102868,0.0563 1.655027,0.0581 0.588921,0.0981 1.18608,0.12491 1.78144,0.1534 0.613775,0.005 1.232776,0.0662 1.843834,-0.005 0.649901,-0.11317 0.823518,0.0416 1.147934,-0.62087 0.288264,-1.44181 0.153649,-2.92194 0.01572,-4.3723 -0.441592,-2.86321 -0.812736,-5.73526 -1.078754,-8.62002 -0.210579,-2.01294 -0.01453,-4.02724 0.129112,-6.03603 0.116147,-2.07203 -0.01942,-4.14793 -0.155684,-6.21559 -0.116141,-1.49152 -0.140647,-2.988 -0.229827,-4.48078 -0.117817,-1.61289 -0.341958,-3.21497 -0.519481,-4.82168 -0.04767,-0.4942 -0.09702,-0.98949 -0.174061,-1.48023 -0.02741,-0.17456 -0.07142,-0.45801 -0.155244,-0.62371 -0.04694,-0.0928 -0.119547,-0.1702 -0.179322,-0.25529 -1.215032,-0.69138 -2.405451,-1.42792 -3.645095,-2.07412 -0.05203,-0.0271 -0.891972,-0.0619 -0.896052,-0.0621 -0.584131,-0.0204 -1.167262,-0.0205 -1.751308,-0.0471 -1.257406,-0.0739 -2.516384,-0.0993 -3.775509,-0.11946 -1.422837,-0.0507 -2.843877,-0.15009 -4.266515,-0.19768 -1.167352,-0.0132 -2.336755,-0.0572 -3.502803,0.0126 -1.079468,0.0804 -2.152007,0.22114 -3.232938,0.2884 -1.053291,0.0263 -2.102128,0.12546 -3.153942,0.18203 -0.893519,0.11806 -1.797,0.13812 -2.690916,0.24522 -0.838012,0.0755 -1.671687,0.18661 -2.509276,0.2657 -1.040413,0.0944 -2.079244,0.1939 -3.122983,0.24738 -0.991346,0.0438 -1.983915,0.0457 -2.976007,0.039 -0.694894,-0.004 -1.389785,-0.002 -2.084681,-0.005 -0.62085,0.0321 -1.234033,-0.0669 -1.849318,-0.13219 -0.301792,-0.0323 -0.604912,-0.0466 -0.90809,-0.0571 0,0 3.187401,2.33702 3.187401,2.33702 v 0 c 0.294336,0.0155 0.588407,0.0355 0.881597,0.0664 0.619516,0.0615 1.239229,0.11663 1.862796,0.0927 0.691465,-0.002 1.382937,0.003 2.074376,-0.005 0.98711,-0.0162 1.974387,-0.0313 2.960798,-0.0739 1.04892,-0.0606 2.093421,-0.17297 3.140914,-0.25315 0.842841,-0.0785 1.684091,-0.17458 2.526295,-0.25964 0.886534,-0.0824 1.773491,-0.16019 2.659742,-0.24499 1.05007,-0.0678 2.099352,-0.14441 3.150804,-0.18799 1.077629,-0.0772 2.147604,-0.22833 3.226702,-0.28289 1.150768,-0.0367 2.303156,-0.0315 3.454162,-0.008 1.428083,0.0582 2.854976,0.14405 4.28321,0.19983 1.259199,0.0199 2.517751,0.0653 3.77535,0.13213 0.586084,0.0234 1.177946,0.0206 1.761945,0.0801 1.498362,0.15272 3.201114,1.48491 -2.230242,-1.64987 0.0821,0.0327 0.1773,0.0429 0.246306,0.0981 0.360003,0.28801 0.361021,1.60777 0.468837,2.03212 0.217704,1.59614 0.45517,3.19251 0.543366,4.80248 0.06154,1.50757 0.126146,3.01434 0.281303,4.51606 0.162404,2.04501 0.312234,4.10029 0.143367,6.15064 -0.122642,2.05013 -0.275675,4.105 -0.03065,6.15476 0.301776,2.85926 0.645345,5.71387 0.986369,8.56865 0.104445,1.36646 0.234432,2.75449 -0.07424,4.10567 -0.02096,0.0437 -0.03142,0.0942 -0.06288,0.13102 -0.08722,0.10214 -0.712258,0.11368 -0.857766,0.14992 -0.600056,0.0242 -1.201237,-0.005 -1.800934,-0.0284 -0.605121,-0.0353 -1.205516,-0.1133 -1.80975,-0.15349 -0.536874,-0.01 -1.073766,-0.0201 -1.610191,-0.0456 -1.051978,-0.0469 -2.105358,-0.11664 -3.158622,-0.0646 -1.211926,0.0536 -2.421175,0.14018 -3.629567,0.24636 -1.068819,0.0575 -2.137119,0.0901 -3.207195,0.0339 -1.349181,-0.0457 -2.695934,-0.13326 -4.043232,-0.21603 -1.307754,-0.0532 -2.615594,-0.14444 -3.925031,-0.10193 -0.932375,0.033 -1.863947,0.1123 -2.77695,0.31404 -0.938906,0.20483 -1.880597,0.4074 -2.799135,0.6923 -1.086192,0.36668 -2.167157,0.74876 -3.245819,1.13701 -0.90225,0.27784 -1.822672,0.45849 -2.772489,0.37268 -0.122777,-0.0224 -0.248753,-0.0314 -0.368329,-0.0671 -0.112599,-0.0336 -0.423434,-0.20181 -0.32371,-0.13964 1.010092,0.6297 2.03857,1.22942 3.057853,1.84414 -0.07681,-0.0592 -0.168997,-0.10262 -0.230433,-0.17767 -0.06998,-0.0855 -0.122098,-0.18754 -0.154877,-0.29304 -0.03946,-0.12701 -0.03918,-0.26309 -0.05877,-0.39463 0.0016,-0.88246 0.01087,-1.76501 -5.3e-4,-2.64743 -0.01058,-1.1923 -0.02725,-2.38454 -0.0226,-3.57692 -0.01664,-1.17741 -0.07555,-2.35265 -0.20374,-3.5238 -0.153019,-1.37648 -0.307763,-2.75611 -0.334809,-4.14196 0.02861,-1.81857 0.08617,-3.63639 0.118872,-5.45483 -0.05203,-1.84633 -0.150233,-3.69025 -0.313891,-5.53028 -0.12324,-1.61545 -0.185171,-3.23507 -0.18302,-4.85537 -0.02727,-1.36135 -0.08661,-2.7236 -0.258948,-4.07542 -0.187732,-1.38873 -0.425037,-2.76839 -0.722466,-4.1377 0,0 -3.566594,-1.68821 -3.566594,-1.68821 z" />
    <path
       style="fill:#000000;stroke-width:0.264583"
       id="path150"
       d="m 96.031226,77.116629 c 0.903616,0.09692 1.807303,0.04596 2.712397,0.0097 1.197142,-0.04511 2.395107,-0.06325 3.593027,-0.06821 0.9687,-0.003 1.93742,-0.0011 2.90612,0.0016 1.01625,0.0026 2.03246,-0.0041 3.04865,-0.01453 1.49915,-0.01746 2.99692,-0.103423 4.49587,-0.145987 1.56373,-0.0401 3.12455,-0.143965 4.68834,-0.188317 1.80662,-0.04486 3.61394,-0.05276 5.42104,-0.05898 1.95561,-0.0037 3.91119,5.29e-4 5.86679,0.003 1.85334,-0.06215 3.704,-0.129011 5.55845,-0.09928 1.95725,0.02958 3.91102,0.159346 5.86693,0.230873 1.42108,0.0026 2.83463,0.104217 4.24592,0.259469 1.23282,0.125156 2.4706,0.194712 3.708,0.256723 2.24779,0.08324 4.49646,0.03239 6.74423,-0.01717 1.82436,-0.07356 3.65289,-2.64e-4 5.4768,-0.06763 0,0 -3.15376,-2.264317 -3.15376,-2.264317 v 0 c -1.77189,0.138322 -3.55587,0.06893 -5.33041,0.156432 -2.27238,0.04363 -4.54657,0.08796 -6.81614,-0.07141 -1.24473,-0.07935 -2.48843,-0.179277 -3.73024,-0.295463 -1.39873,-0.136927 -2.80102,-0.181507 -4.20615,-0.197287 -1.95088,-0.06322 -3.90011,-0.17382 -5.85171,-0.209867 -1.85842,-0.0199 -3.7129,0.03324 -5.5701,0.09691 -1.95294,0.0016 -3.90588,0.0032 -5.85884,0.0038 -1.81983,7.94e-4 -3.63996,-0.0026 -5.45934,0.04453 -1.56639,0.05065 -3.131,0.13852 -4.69746,0.181335 -1.50298,0.04604 -3.00545,0.133294 -4.50957,0.122039 -1.03015,-0.0105 -2.06032,-0.01797 -3.09053,-0.0158 -0.96184,0.003 -1.92369,0.0054 -2.885473,0.01791 -1.198184,0.01828 -2.396254,0.03852 -3.593957,0.07805 -0.918774,0.02151 -1.839857,0.03744 -2.751127,-0.107002 0,0 3.172243,2.358839 3.172243,2.358839 z" />
    <path
       style="fill:#000000;stroke-width:0.264583"
       id="path152"
       d="m 104.11142,132.7003 c 2.00239,-0.48217 4.06745,-0.61495 6.11682,-0.73761 2.8115,-0.18717 5.62816,-0.29186 8.44578,-0.29561 3.15075,0.0523 6.28386,0.42316 9.41223,0.77124 3.04614,0.30031 6.06545,0.80123 9.09019,1.25885 2.08383,0.29072 4.15391,0.67125 6.24428,0.91634 1.63945,0.19222 2.10012,0.21088 3.76715,0.33994 3.38056,0.23769 6.76263,-0.0536 10.12294,-0.4116 1.59544,-0.15045 3.1887,-0.41651 4.79472,-0.40458 0.70592,0.0337 1.39245,0.20648 2.08021,0.3544 0,0 -3.08771,-2.34213 -3.08771,-2.34213 v 0 c -0.70219,-0.14274 -1.40776,-0.29587 -2.12896,-0.28251 -1.56687,0.0674 -3.11271,0.34421 -4.66648,0.54156 -3.30453,0.41098 -6.63413,0.68727 -9.96497,0.43786 -1.73285,-0.15256 -2.09404,-0.16639 -3.79618,-0.38539 -2.11227,-0.27178 -4.20532,-0.66549 -6.31222,-0.97225 -3.00471,-0.4372 -6.00461,-0.90767 -9.02889,-1.1967 -3.15362,-0.35376 -6.31244,-0.75662 -9.4903,-0.77805 -2.82542,0.002 -5.64762,0.12987 -8.46731,0.30667 -2.12853,0.12738 -4.26204,0.25668 -6.3631,0.64173 0,0 3.2318,2.23784 3.2318,2.23784 z" />
    <path
       style="fill:#000000;stroke-width:0.264583"
       id="path154"
       d="m 100.6807,190.4965 c 1.08699,-0.38617 2.22276,-0.597 3.34744,-0.83635 1.01951,-0.21696 2.03648,-0.44578 3.05546,-0.66524 2.7254,-0.57266 5.42821,-1.37414 8.2104,-1.64121 0.54895,-0.0527 1.10136,-0.0591 1.65203,-0.0886 0.5369,0.0127 1.07575,-0.01 1.61068,0.038 1.75953,0.15648 3.46338,0.70109 5.14038,1.22109 0.16477,0.0511 3.30462,1.06018 3.47025,1.11338 0.58329,0.17856 1.16568,0.3601 1.74987,0.53568 0.55549,0.16695 1.10867,0.34244 1.66911,0.4919 2.13682,0.56986 4.32108,0.92128 6.51021,1.21198 2.60028,0.34602 5.22059,0.2179 7.81166,-0.12156 2.52173,-0.35302 4.95079,-1.15687 7.38366,-1.88129 2.99038,-0.9411 6.08196,-1.44678 9.17611,-1.89692 2.9815,-0.45884 5.99468,-0.63854 9.00347,-0.80768 1.41888,-0.10187 2.8407,-0.0905 4.24569,0.13627 0.63723,0.0951 1.26883,0.22073 1.90572,0.31857 0,0 -3.11181,-2.33615 -3.11181,-2.33615 v 0 c -0.63545,-0.10301 -1.26804,-0.2236 -1.90601,-0.3106 -1.3792,-0.1658 -2.76426,-0.0976 -4.145,0.0338 -2.98905,0.22176 -5.98297,0.42364 -8.9474,0.8847 -1.64642,0.25088 -3.29753,0.48203 -4.93042,0.81316 -1.18712,0.24074 -1.75827,0.39288 -2.91796,0.70205 -0.47118,0.12561 -0.94089,0.2567 -1.41134,0.38506 -2.43181,0.70638 -4.85875,1.47894 -7.37799,1.81284 -2.55629,0.3093 -5.13376,0.43075 -7.69632,0.0887 -1.60996,-0.21142 -3.20429,-0.46294 -4.78951,-0.82125 -1.3339,-0.3015 -1.98708,-0.49439 -3.29818,-0.8887 -0.58427,-0.17571 -1.16585,-0.36023 -1.74878,-0.54035 -0.97247,-0.31188 -2.486,-0.80128 -3.46407,-1.09903 -1.71781,-0.52294 -3.44641,-1.05239 -5.24934,-1.17946 -0.53756,-0.0379 -1.07776,-0.006 -1.61664,-0.009 -0.55773,0.0367 -1.11735,0.0513 -1.67318,0.11008 -2.78805,0.29511 -5.48927,1.12371 -8.23398,1.65442 -2.22343,0.46554 -4.463976,0.83418 -6.681764,1.32498 0,0 3.257554,2.24693 3.257554,2.24693 z" />
  </g>
</svg>
