<?xml version="1.0" encoding="UTF-8" standalone="no"?>
<!-- Created with Inkscape (http://www.inkscape.org/) -->

<svg
   width="210mm"
   height="297mm"
   viewBox="0 0 210 297"
   version="1.1"
   id="svg5"
   inkscape:version="1.2.2 (b0a8486541, 2022-12-01)"
   sodipodi:docname="home.svg"
   xmlns:inkscape="http://www.inkscape.org/namespaces/inkscape"
   xmlns:sodipodi="http://sodipodi.sourceforge.net/DTD/sodipodi-0.dtd"
   xmlns="http://www.w3.org/2000/svg"
   xmlns:svg="http://www.w3.org/2000/svg">
  <sodipodi:namedview
     id="namedview7"
     pagecolor="#ffffff"
     bordercolor="#000000"
     borderopacity="0.25"
     inkscape:showpageshadow="2"
     inkscape:pageopacity="0.0"
     inkscape:pagecheckerboard="0"
     inkscape:deskcolor="#d1d1d1"
     inkscape:document-units="mm"
     showgrid="false"
     inkscape:zoom="0.61557941"
     inkscape:cx="396.37453"
     inkscape:cy="562.88433"
     inkscape:window-width="1600"
     inkscape:window-height="828"
     inkscape:window-x="0"
     inkscape:window-y="0"
     inkscape:window-maximized="1"
     inkscape:current-layer="layer1" />
  <defs
     id="defs2" />
  <g
     inkscape:label="Ebene 1"
     inkscape:groupmode="layer"
     id="layer1">
    <path
       style="fill:#000000;stroke-width:0.264583"
       id="path233"
       d="m 23.945169,68.726991 c -0.412657,1.948672 -0.314328,3.929674 -0.04779,5.887072 0.628423,4.343164 1.197005,8.694036 1.765274,13.045321 0.431612,3.377326 1.069308,6.721078 1.643073,10.075367 0.540805,3.288729 0.582919,6.629539 0.648996,9.953389 -0.02902,4.63103 -0.222851,9.25903 -0.329755,13.88865 -0.127866,3.98459 -0.422402,7.96034 -0.625587,11.94109 -0.322762,3.86388 -0.15173,7.72299 0.119058,11.58119 0.410477,3.60739 0.6238,7.22712 0.751247,10.85405 0.09274,4.77861 0.256228,9.55607 0.652219,14.31983 0.410062,3.77167 0.577625,7.56006 0.675558,11.35057 0.07439,3.54902 0.05905,7.09919 0.02849,10.64862 -0.01754,1.73641 -0.02138,3.47296 -0.02545,5.20945 0.05351,1.22519 -0.258432,2.63313 0.484777,3.72459 0.216633,0.31814 0.517515,0.56987 0.776272,0.85481 2.165974,1.41864 2.85084,1.93157 6.089541,3.21955 1.046703,0.41626 4.169183,0.47383 5.064533,0.4836 2.012397,0.022 4.50914,-0.10073 6.520447,-0.17943 4.154725,-0.16349 8.306705,-0.48407 12.466788,-0.48357 2.475267,2.6e-4 3.151082,0.0657 5.616342,0.19076 5.015439,0.25212 9.991368,0.93929 14.968675,1.57161 4.733324,0.57663 9.480166,1.01007 14.234882,1.36396 5.513721,0.35267 11.040661,0.40537 16.563691,0.44385 5.17006,0.0234 10.34478,-0.0944 15.5098,-0.32919 4.61017,-0.18947 9.21694,-0.44562 13.82639,-0.64975 5.77491,-0.16682 11.54983,-0.33328 17.32524,-0.48869 4.86067,-0.13086 9.72292,-0.1813 14.58521,-0.18456 1.69364,-2.7e-4 3.38724,0.0125 5.08087,0.014 0.0357,9e-5 1.03697,0.029 1.13191,-0.0621 0.67958,-0.65249 0.45244,-2.14734 0.42087,-2.7937 -0.0615,-1.25963 -0.2036,-2.51405 -0.29605,-3.77179 -0.14284,-1.94334 -0.2732,-3.88758 -0.40981,-5.83137 -0.65779,-9.76054 -1.00346,-19.54049 -1.77145,-29.29389 -0.42415,-5.3867 -0.58418,-6.49072 -1.16279,-11.78922 -0.19926,-1.88749 -0.40572,-3.77423 -0.59776,-5.66246 -0.42918,-4.21977 -0.7197,-7.04719 -0.9749,-11.25733 -0.2891,-4.76937 -0.36243,-9.53191 -0.34061,-14.30784 0.0402,-2.93958 0.24509,-5.88353 0.77504,-8.7785 0.32185,-1.75811 0.8289,-3.4797 1.31761,-5.19626 1.04357,-3.50056 1.23395,-7.17964 1.41935,-10.806677 0.0298,-3.508589 -0.14853,-7.014742 -0.22751,-10.521945 -0.0134,-2.894965 -0.097,-5.784196 -0.26622,-8.673901 -0.15135,-1.647426 -0.39762,-3.283696 -0.54395,-4.931638 -0.0981,-0.956685 -0.45158,-1.85407 -0.68723,-2.779516 -0.235,-1.591882 -1.05537,-2.93238 -1.87779,-4.287047 -3.81957,-5.35034 -9.23932,-9.193479 -14.40438,-13.132591 -5.193,-3.925776 -10.16154,-8.128973 -15.12855,-12.332641 -3.30138,-2.795974 -6.65233,-5.530001 -10.16353,-8.058656 -2.52651,-1.718759 -5.23471,-3.146147 -7.88916,-4.654232 -0.53335,-0.303019 -2.10548,-1.256916 -1.59926,-0.910463 0.53065,0.363172 1.10274,0.663252 1.67278,0.960781 0.5101,0.266235 -0.99517,-0.577879 -1.49275,-0.866817 -1.58402,-0.910178 -3.16803,-1.820356 -4.75205,-2.730534 -0.48205,-0.276888 -1.97235,-1.009958 -1.44615,-0.830663 0.66307,0.22593 1.1625,0.958708 1.86286,0.972651 0.54661,0.01088 -0.89665,-0.626583 -1.32837,-0.96201 -0.79324,-0.616307 -1.79385,-1.51505 -2.54774,-2.177056 -1.59841,-1.601715 -3.29475,-3.087146 -5.06589,-4.492549 -2.03071,-1.364564 -4.10756,-2.828537 -6.38686,-3.716067 -0.66759,-0.390848 -1.40984,-0.592524 -2.12304,-0.875744 -0.86033,-0.252824 -1.24114,-0.726575 -2.07456,-0.105326 -0.53882,0.413398 -0.90583,1.006328 -1.383266,1.481316 -0.373587,0.371677 -0.916305,0.756559 -1.326166,1.066869 -2.130827,1.517222 -4.509331,2.617368 -6.855301,3.750542 -2.621801,1.362516 -5.281658,2.642732 -7.768318,4.243088 -2.718069,1.727624 -5.033279,4.010678 -7.315909,6.26432 -1.984263,2.033333 -4.129759,3.878887 -6.40621,5.574061 -2.059321,1.55946 -4.33727,2.777493 -6.598915,4.008321 -2.35703,1.220814 -4.52484,2.766373 -6.720575,4.248894 -2.888512,2.045835 -5.704456,4.191492 -8.497893,6.36466 -2.503842,1.918653 -4.936395,3.927565 -7.537243,5.715117 -2.008571,1.574903 -4.224542,2.843707 -6.46861,4.046561 -2.054998,1.068827 -4.084431,2.185614 -6.143175,3.24739 -1.305531,0.566153 -2.527121,1.287558 -3.750313,2.006219 -0.777843,0.56153 -1.545403,1.154083 -2.222496,1.83574 -0.649411,0.709485 -0.755797,1.527011 -0.700332,2.445366 0.232244,1.043903 0.371755,2.105533 0.577103,3.154061 0.275564,0.879618 0.566823,1.752777 0.819645,2.640544 0.0647,0.202216 0.129403,0.404432 0.194105,0.606648 0,0 3.562852,1.674172 3.562852,1.674172 v 0 c -0.06725,-0.196466 -0.134504,-0.392935 -0.201756,-0.589402 -0.240312,-0.881935 -0.459883,-1.772475 -0.816842,-2.616224 -0.25611,-1.019402 -0.300792,-2.084892 -0.595249,-3.099159 -0.07262,-0.813422 -0.07246,-1.516383 0.531858,-2.14842 0.664319,-0.650102 1.399798,-1.231154 2.164121,-1.758868 1.199124,-0.728329 2.417837,-1.422744 3.690491,-2.017495 2.050327,-1.073886 4.087727,-2.173105 6.128096,-3.265287 2.24414,-1.229534 4.487294,-2.479193 6.492057,-4.083176 2.576269,-1.823432 5.0066,-3.838779 7.514776,-5.75327 2.785742,-2.170774 5.584499,-4.329096 8.492476,-6.334987 2.207083,-1.456891 4.382323,-2.97864 6.733921,-4.198559 2.276028,-1.235689 4.541771,-2.501366 6.615038,-4.064178 2.282884,-1.712462 4.430528,-3.580772 6.425504,-5.624459 2.262646,-2.235729 4.542859,-4.51176 7.253666,-6.20635 2.500255,-1.56201 5.158312,-2.830923 7.773279,-4.188066 2.366248,-1.156829 4.767908,-2.268551 6.929351,-3.791647 0.5317,-0.397105 0.9278,-0.662622 1.39722,-1.119659 0.45538,-0.443361 0.81505,-0.998135 1.34493,-1.362307 0.62867,-0.259896 1.2581,0.231559 1.86008,0.404116 0.70609,0.28363 1.43705,0.501313 2.10652,0.872962 1.46259,0.670653 0.56902,0.278262 -2.48107,-1.502981 -0.16058,-0.09378 0.32054,0.188672 0.48213,0.280705 0.77117,0.439207 0.27406,0.126336 1.05686,0.643517 0.19634,0.129717 0.39212,0.260276 0.58818,0.390414 1.81075,1.395617 3.55641,2.867722 5.15718,4.504625 1.23684,1.096358 2.45501,2.299529 3.85722,3.189315 1.54043,0.977493 3.11719,1.8966 4.68354,2.831994 0.47638,0.284483 1.91401,1.122871 1.44434,0.827453 -0.58698,-0.369197 -1.19766,-0.699298 -1.79649,-1.048947 2.12192,1.229411 4.22358,2.44778 6.35722,3.676569 0.53338,0.307181 1.06945,0.609658 1.60451,0.91391 0.51539,0.293071 2.00636,1.252713 1.54683,0.878065 -0.50198,-0.40926 -1.03674,-0.878379 -1.67586,-0.983266 -0.583,-0.09567 0.99606,0.635625 1.4941,0.95344 3.54966,2.524056 6.93595,5.258165 10.26462,8.066354 5.00073,4.220184 10.00633,8.435425 15.22271,12.390078 5.09564,3.893539 10.477,7.656801 14.26821,12.924282 0.78374,1.299038 1.57344,2.601468 1.8067,4.123031 0.21235,0.92138 0.56741,1.798992 0.72505,2.733503 0.15489,1.65591 0.42005,3.297835 0.60627,4.950232 0.19083,2.89187 0.30474,5.782159 0.31227,8.681122 0.0973,3.500771 0.25119,7.001206 0.25339,10.503585 -0.16477,3.602501 -0.35611,7.245267 -1.39207,10.723017 -0.48795,1.74443 -0.9773,3.48641 -1.27268,5.27696 -0.4855,2.94291 -0.65323,5.92772 -0.64165,8.90782 0.0927,10.47777 0.73529,20.9312 2.03744,31.33276 0.49587,4.33381 0.88165,7.45577 1.26237,11.82434 0.84773,9.72723 1.29521,19.4879 1.68198,29.24214 0.0743,1.91309 0.14859,3.82618 0.22305,5.73926 0.0475,1.22122 0.11957,2.44174 0.14294,3.66366 0.002,0.12963 0.15285,1.9447 -0.24812,2.23975 -0.29403,0.21637 -0.82093,-0.17659 -1.09451,0.0382 -1.67048,-0.001 -3.34092,0.013 -5.01117,0.041 -4.82036,0.0781 -9.64077,0.15973 -14.46018,0.28405 -5.79563,0.16519 -11.59209,0.28597 -17.38749,0.45157 -4.61078,0.20757 -9.22036,0.43724 -13.83105,0.64651 -5.14505,0.22822 -10.29738,0.37578 -15.44766,0.34969 -5.53391,-0.0526 -11.072449,-0.10956 -16.595179,-0.4983 -4.749622,-0.37035 -9.494459,-0.7893 -14.222769,-1.37837 -4.971132,-0.62849 -9.943809,-1.29959 -14.954062,-1.52476 -2.519133,-0.11709 -3.09331,-0.17622 -5.621118,-0.16321 -4.152715,0.0214 -8.296569,0.36025 -12.44505,0.50804 -3.13668,0.11755 -6.319417,0.32662 -9.44766,-0.0685 -0.733194,-0.0926 -1.804045,-1.08334 -2.172411,-0.44267 -0.352555,0.61316 1.234784,0.74328 1.686758,1.28732 0.286348,0.34468 -0.779267,-0.44265 -1.1689,-0.66398 -0.267594,-0.2414 -0.573479,-0.44618 -0.80278,-0.72422 -0.822846,-0.99774 -0.505159,-2.38731 -0.555181,-3.5618 -7.93e-4,-1.74325 0.0013,-3.48656 -0.01341,-5.22975 -0.0316,-3.56636 -0.06696,-7.13268 -0.109077,-10.69894 -0.06894,-3.79631 -0.197885,-7.59394 -0.65273,-11.36731 -0.448416,-4.75585 -0.657405,-9.53134 -0.679672,-14.30826 -0.08039,-3.62453 -0.260615,-7.24261 -0.694579,-10.84429 -0.290362,-3.8508 -0.520163,-7.70134 -0.185804,-11.56121 0.223425,-3.98194 0.527632,-7.95895 0.64202,-11.94666 0.08422,-4.63698 0.227581,-9.27232 0.318069,-13.90913 -0.02397,-3.32733 -0.0013,-6.67489 -0.545489,-9.968452 -0.578797,-3.369831 -1.281573,-6.717903 -1.742517,-10.107779 -0.576477,-4.328572 -1.125675,-8.661095 -1.65999,-12.994896 -0.255752,-1.899851 -0.395211,-3.843335 0.0545,-5.728158 0,0 -3.481434,-1.870869 -3.481434,-1.870869 z" />
  </g>
</svg>
